<mxfile host="app.diagrams.net" modified="2023-10-28T15:36:29.547Z" agent="Mozilla/5.0 (Windows NT 10.0; Win64; x64) AppleWebKit/537.36 (KHTML, like Gecko) Chrome/118.0.0.0 Safari/537.36 Edg/118.0.2088.69" etag="OuxabA7eGK7i5hE0GCLu" version="22.0.8" type="google">
  <diagram name="Trang-1" id="AeEnbmxU7tF4i0oNfya4">
    <mxGraphModel grid="1" page="1" gridSize="10" guides="1" tooltips="1" connect="1" arrows="1" fold="1" pageScale="1" pageWidth="827" pageHeight="1169" math="0" shadow="0">
      <root>
        <mxCell id="0" />
        <mxCell id="1" parent="0" />
        <mxCell id="Z0IccabozwdIeJtyzvo7-52" value="" style="rounded=0;whiteSpace=wrap;html=1;fillColor=none;strokeWidth=2;labelBackgroundColor=none;movable=1;resizable=1;rotatable=1;deletable=1;editable=1;locked=0;connectable=1;" vertex="1" parent="1">
          <mxGeometry x="313.5" y="888" width="777" height="222" as="geometry" />
        </mxCell>
        <mxCell id="Z0IccabozwdIeJtyzvo7-53" value="" style="html=1;points=[[0,0,0,0,5],[0,1,0,0,-5],[1,0,0,0,5],[1,1,0,0,-5]];perimeter=orthogonalPerimeter;outlineConnect=0;targetShapes=umlLifeline;portConstraint=eastwest;newEdgeStyle={&quot;curved&quot;:0,&quot;rounded&quot;:0};labelBackgroundColor=none;fillColor=none;strokeWidth=6;movable=1;resizable=1;rotatable=1;deletable=1;editable=1;locked=0;connectable=1;" vertex="1" parent="1">
          <mxGeometry x="280" y="123" width="850" height="1027" as="geometry" />
        </mxCell>
        <mxCell id="Z0IccabozwdIeJtyzvo7-54" value="" style="rounded=0;whiteSpace=wrap;html=1;fillColor=none;strokeWidth=2;labelBackgroundColor=none;movable=1;resizable=1;rotatable=1;deletable=1;editable=1;locked=0;connectable=1;" vertex="1" parent="1">
          <mxGeometry x="313.5" y="653" width="777" height="227" as="geometry" />
        </mxCell>
        <mxCell id="Z0IccabozwdIeJtyzvo7-55" value="" style="rounded=0;whiteSpace=wrap;html=1;fillColor=none;strokeWidth=2;labelBackgroundColor=none;movable=1;resizable=1;rotatable=1;deletable=1;editable=1;locked=0;connectable=1;" vertex="1" parent="1">
          <mxGeometry x="315" y="430" width="777" height="202" as="geometry" />
        </mxCell>
        <mxCell id="Z0IccabozwdIeJtyzvo7-56" value="" style="rounded=0;whiteSpace=wrap;html=1;strokeWidth=2;labelBackgroundColor=none;movable=1;resizable=1;rotatable=1;deletable=1;editable=1;locked=0;connectable=1;fillColor=none;" vertex="1" parent="1">
          <mxGeometry x="319.5" y="170" width="771" height="250" as="geometry" />
        </mxCell>
        <mxCell id="Z0IccabozwdIeJtyzvo7-57" value="SSO" style="shape=umlActor;verticalLabelPosition=bottom;verticalAlign=top;html=1;outlineConnect=0;fontSize=14;strokeWidth=2;labelBackgroundColor=none;fillColor=#f8cecc;strokeColor=#b85450;movable=1;resizable=1;rotatable=1;deletable=1;editable=1;locked=0;connectable=1;" vertex="1" parent="1">
          <mxGeometry x="1203" y="260" width="30" height="60" as="geometry" />
        </mxCell>
        <mxCell id="Z0IccabozwdIeJtyzvo7-58" value="" style="endArrow=none;html=1;rounded=0;strokeWidth=2;labelBackgroundColor=none;fontColor=default;movable=1;resizable=1;rotatable=1;deletable=1;editable=1;locked=0;connectable=1;" edge="1" parent="1">
          <mxGeometry width="50" height="50" relative="1" as="geometry">
            <mxPoint x="1268" y="333.5" as="sourcePoint" />
            <mxPoint x="1268" y="333.5" as="targetPoint" />
          </mxGeometry>
        </mxCell>
        <mxCell id="Z0IccabozwdIeJtyzvo7-59" value="Login" style="ellipse;whiteSpace=wrap;html=1;fillColor=#dae8fc;fontSize=14;strokeWidth=2;labelBackgroundColor=none;strokeColor=#6c8ebf;movable=1;resizable=1;rotatable=1;deletable=1;editable=1;locked=0;connectable=1;" vertex="1" parent="1">
          <mxGeometry x="413" y="250" width="130" height="60" as="geometry" />
        </mxCell>
        <mxCell id="Z0IccabozwdIeJtyzvo7-60" value="Print" style="ellipse;whiteSpace=wrap;html=1;fillColor=#fff2cc;fontSize=14;strokeWidth=2;labelBackgroundColor=none;strokeColor=#d6b656;movable=1;resizable=1;rotatable=1;deletable=1;editable=1;locked=0;connectable=1;" vertex="1" parent="1">
          <mxGeometry x="398" y="555" width="130" height="60" as="geometry" />
        </mxCell>
        <mxCell id="Z0IccabozwdIeJtyzvo7-62" value="View page balance" style="ellipse;whiteSpace=wrap;html=1;fontSize=14;strokeWidth=2;labelBackgroundColor=none;fillColor=#fff2cc;strokeColor=#d6b656;movable=1;resizable=1;rotatable=1;deletable=1;editable=1;locked=0;connectable=1;" vertex="1" parent="1">
          <mxGeometry x="398" y="473" width="130" height="60" as="geometry" />
        </mxCell>
        <mxCell id="Z0IccabozwdIeJtyzvo7-63" value="Manage accounts" style="ellipse;whiteSpace=wrap;html=1;fontSize=14;strokeWidth=2;labelBackgroundColor=none;fillColor=#f8cecc;strokeColor=#b85450;movable=1;resizable=1;rotatable=1;deletable=1;editable=1;locked=0;connectable=1;" vertex="1" parent="1">
          <mxGeometry x="349" y="949.5" width="130" height="60" as="geometry" />
        </mxCell>
        <mxCell id="Z0IccabozwdIeJtyzvo7-64" value="View default print configurations" style="ellipse;whiteSpace=wrap;html=1;fontSize=14;strokeWidth=2;labelBackgroundColor=none;fillColor=#e1d5e7;strokeColor=#9673a6;movable=1;resizable=1;rotatable=1;deletable=1;editable=1;locked=0;connectable=1;" vertex="1" parent="1">
          <mxGeometry x="719" y="954" width="151" height="64.5" as="geometry" />
        </mxCell>
        <mxCell id="Z0IccabozwdIeJtyzvo7-65" value="View printing log of all students" style="ellipse;whiteSpace=wrap;html=1;fontSize=14;strokeWidth=2;labelBackgroundColor=none;fillColor=#e1d5e7;strokeColor=#9673a6;movable=1;resizable=1;rotatable=1;deletable=1;editable=1;locked=0;connectable=1;" vertex="1" parent="1">
          <mxGeometry x="923" y="686.13" width="136" height="69.75" as="geometry" />
        </mxCell>
        <mxCell id="Z0IccabozwdIeJtyzvo7-66" value="View printing statistics" style="ellipse;whiteSpace=wrap;html=1;fontSize=14;strokeWidth=2;labelBackgroundColor=none;fillColor=#e1d5e7;strokeColor=#9673a6;movable=1;resizable=1;rotatable=1;deletable=1;editable=1;locked=0;connectable=1;" vertex="1" parent="1">
          <mxGeometry x="923" y="952" width="155" height="77" as="geometry" />
        </mxCell>
        <mxCell id="Z0IccabozwdIeJtyzvo7-67" style="edgeStyle=orthogonalEdgeStyle;rounded=0;orthogonalLoop=1;jettySize=auto;html=1;exitX=0.5;exitY=1;exitDx=0;exitDy=0;strokeWidth=2;labelBackgroundColor=none;fontColor=default;movable=1;resizable=1;rotatable=1;deletable=1;editable=1;locked=0;connectable=1;" edge="1" parent="1">
          <mxGeometry relative="1" as="geometry">
            <mxPoint x="543" y="573.5" as="sourcePoint" />
            <mxPoint x="543" y="573.5" as="targetPoint" />
          </mxGeometry>
        </mxCell>
        <mxCell id="Z0IccabozwdIeJtyzvo7-68" value="View pinting log" style="ellipse;whiteSpace=wrap;html=1;fontSize=14;strokeWidth=2;labelBackgroundColor=none;fillColor=#fff2cc;strokeColor=#d6b656;movable=1;resizable=1;rotatable=1;deletable=1;editable=1;locked=0;connectable=1;" vertex="1" parent="1">
          <mxGeometry x="398" y="710" width="130" height="60" as="geometry" />
        </mxCell>
        <mxCell id="Z0IccabozwdIeJtyzvo7-69" value="" style="endArrow=none;html=1;rounded=0;strokeWidth=2;labelBackgroundColor=none;fontColor=default;fillColor=#dae8fc;strokeColor=#6c8ebf;movable=1;resizable=1;rotatable=1;deletable=1;editable=1;locked=0;connectable=1;" edge="1" parent="1" target="Z0IccabozwdIeJtyzvo7-59">
          <mxGeometry width="50" height="50" relative="1" as="geometry">
            <mxPoint x="230" y="280" as="sourcePoint" />
            <mxPoint x="388.9999999999959" y="277" as="targetPoint" />
          </mxGeometry>
        </mxCell>
        <mxCell id="Z0IccabozwdIeJtyzvo7-70" value="" style="endArrow=none;html=1;rounded=0;entryX=0;entryY=0.5;entryDx=0;entryDy=0;strokeWidth=2;labelBackgroundColor=none;fontColor=default;fillColor=#fff2cc;strokeColor=#d6b656;movable=1;resizable=1;rotatable=1;deletable=1;editable=1;locked=0;connectable=1;" edge="1" parent="1" target="Z0IccabozwdIeJtyzvo7-60">
          <mxGeometry width="50" height="50" relative="1" as="geometry">
            <mxPoint x="257" y="585" as="sourcePoint" />
            <mxPoint x="278" y="553.5" as="targetPoint" />
          </mxGeometry>
        </mxCell>
        <mxCell id="Z0IccabozwdIeJtyzvo7-72" value="" style="endArrow=none;html=1;rounded=0;entryX=0;entryY=0.5;entryDx=0;entryDy=0;strokeWidth=2;labelBackgroundColor=none;fontColor=default;exitX=0;exitY=0.5;exitDx=0;exitDy=0;fillColor=#fff2cc;strokeColor=#d6b656;movable=1;resizable=1;rotatable=1;deletable=1;editable=1;locked=0;connectable=1;" edge="1" parent="1" source="Z0IccabozwdIeJtyzvo7-62" target="Z0IccabozwdIeJtyzvo7-68">
          <mxGeometry width="50" height="50" relative="1" as="geometry">
            <mxPoint x="254" y="473" as="sourcePoint" />
            <mxPoint x="278" y="553.5" as="targetPoint" />
            <Array as="points">
              <mxPoint x="256" y="504" />
              <mxPoint x="256" y="741" />
            </Array>
          </mxGeometry>
        </mxCell>
        <mxCell id="Z0IccabozwdIeJtyzvo7-73" value="" style="endArrow=none;html=1;rounded=0;exitX=0.5;exitY=0;exitDx=0;exitDy=0;strokeWidth=2;labelBackgroundColor=none;fontColor=default;fillColor=#f8cecc;strokeColor=#b85450;movable=1;resizable=1;rotatable=1;deletable=1;editable=1;locked=0;connectable=1;" edge="1" parent="1" source="Z0IccabozwdIeJtyzvo7-63">
          <mxGeometry width="50" height="50" relative="1" as="geometry">
            <mxPoint x="1098" y="383.5" as="sourcePoint" />
            <mxPoint x="1160" y="290" as="targetPoint" />
            <Array as="points">
              <mxPoint x="414" y="916" />
              <mxPoint x="1158" y="916" />
            </Array>
          </mxGeometry>
        </mxCell>
        <mxCell id="Z0IccabozwdIeJtyzvo7-74" value="" style="endArrow=none;html=1;rounded=0;strokeWidth=2;labelBackgroundColor=none;fontColor=default;exitX=0.5;exitY=1;exitDx=0;exitDy=0;fillColor=#e1d5e7;strokeColor=#9673a6;movable=1;resizable=1;rotatable=1;deletable=1;editable=1;locked=0;connectable=1;" edge="1" parent="1" source="Z0IccabozwdIeJtyzvo7-64">
          <mxGeometry width="50" height="50" relative="1" as="geometry">
            <mxPoint x="1098" y="653.5" as="sourcePoint" />
            <mxPoint x="795" y="1090" as="targetPoint" />
          </mxGeometry>
        </mxCell>
        <mxCell id="Z0IccabozwdIeJtyzvo7-75" value="" style="endArrow=none;html=1;rounded=0;exitX=1;exitY=0.5;exitDx=0;exitDy=0;strokeWidth=2;labelBackgroundColor=none;fontColor=default;entryX=0.5;entryY=0.5;entryDx=0;entryDy=0;entryPerimeter=0;fillColor=#e1d5e7;strokeColor=#9673a6;movable=1;resizable=1;rotatable=1;deletable=1;editable=1;locked=0;connectable=1;" edge="1" parent="1" source="Z0IccabozwdIeJtyzvo7-65" target="Z0IccabozwdIeJtyzvo7-90">
          <mxGeometry width="50" height="50" relative="1" as="geometry">
            <mxPoint x="910.0000000000082" y="788.75" as="sourcePoint" />
            <mxPoint x="1181" y="745" as="targetPoint" />
          </mxGeometry>
        </mxCell>
        <mxCell id="Z0IccabozwdIeJtyzvo7-76" value="" style="endArrow=none;html=1;rounded=0;exitX=0.5;exitY=1;exitDx=0;exitDy=0;strokeWidth=2;labelBackgroundColor=none;fontColor=default;fillColor=#e1d5e7;strokeColor=#9673a6;movable=1;resizable=1;rotatable=1;deletable=1;editable=1;locked=0;connectable=1;" edge="1" parent="1" source="Z0IccabozwdIeJtyzvo7-66">
          <mxGeometry width="50" height="50" relative="1" as="geometry">
            <mxPoint x="1098" y="653.5" as="sourcePoint" />
            <mxPoint x="1001" y="1090" as="targetPoint" />
          </mxGeometry>
        </mxCell>
        <mxCell id="Z0IccabozwdIeJtyzvo7-77" value="Make payment" style="ellipse;whiteSpace=wrap;html=1;fontSize=14;strokeWidth=2;labelBackgroundColor=none;fillColor=#d5e8d4;strokeColor=#82b366;movable=1;resizable=1;rotatable=1;deletable=1;editable=1;locked=0;connectable=1;" vertex="1" parent="1">
          <mxGeometry x="730" y="473" width="140" height="60" as="geometry" />
        </mxCell>
        <mxCell id="Z0IccabozwdIeJtyzvo7-78" value="View information about all printers" style="ellipse;whiteSpace=wrap;html=1;fontSize=14;strokeWidth=2;labelBackgroundColor=none;fillColor=#e1d5e7;strokeColor=#9673a6;movable=1;resizable=1;rotatable=1;deletable=1;editable=1;locked=0;connectable=1;" vertex="1" parent="1">
          <mxGeometry x="515" y="955" width="175" height="75" as="geometry" />
        </mxCell>
        <mxCell id="Z0IccabozwdIeJtyzvo7-79" value="" style="endArrow=none;html=1;rounded=0;strokeWidth=2;labelBackgroundColor=none;fontColor=default;entryX=0.5;entryY=1;entryDx=0;entryDy=0;fillColor=#e1d5e7;strokeColor=#9673a6;movable=1;resizable=1;rotatable=1;deletable=1;editable=1;locked=0;connectable=1;" edge="1" parent="1" target="Z0IccabozwdIeJtyzvo7-78">
          <mxGeometry width="50" height="50" relative="1" as="geometry">
            <mxPoint x="1183" y="720" as="sourcePoint" />
            <mxPoint x="599" y="1029" as="targetPoint" />
            <Array as="points">
              <mxPoint x="1183" y="1090" />
              <mxPoint x="947" y="1089" />
              <mxPoint x="603" y="1089" />
            </Array>
          </mxGeometry>
        </mxCell>
        <mxCell id="Z0IccabozwdIeJtyzvo7-80" value="Logout" style="ellipse;whiteSpace=wrap;html=1;fillColor=#dae8fc;fontSize=14;strokeWidth=2;labelBackgroundColor=none;strokeColor=#6c8ebf;movable=1;resizable=1;rotatable=1;deletable=1;editable=1;locked=0;connectable=1;" vertex="1" parent="1">
          <mxGeometry x="414" y="354" width="130" height="60" as="geometry" />
        </mxCell>
        <mxCell id="Z0IccabozwdIeJtyzvo7-81" value="" style="endArrow=none;html=1;rounded=0;entryX=-0.004;entryY=0.439;entryDx=0;entryDy=0;strokeWidth=2;labelBackgroundColor=none;fontColor=default;fillColor=#dae8fc;strokeColor=#6c8ebf;movable=1;resizable=1;rotatable=1;deletable=1;editable=1;locked=0;connectable=1;entryPerimeter=0;" edge="1" parent="1" target="Z0IccabozwdIeJtyzvo7-80">
          <mxGeometry width="50" height="50" relative="1" as="geometry">
            <mxPoint x="230" y="280" as="sourcePoint" />
            <mxPoint x="278" y="333.5" as="targetPoint" />
            <Array as="points">
              <mxPoint x="230" y="330" />
              <mxPoint x="230" y="380" />
              <mxPoint x="320" y="380" />
            </Array>
          </mxGeometry>
        </mxCell>
        <mxCell id="Z0IccabozwdIeJtyzvo7-82" value="Online Payment Provider" style="shape=umlActor;verticalLabelPosition=bottom;verticalAlign=top;html=1;outlineConnect=0;strokeWidth=2;labelBackgroundColor=none;fillColor=#d5e8d4;strokeColor=#82b366;movable=1;resizable=1;rotatable=1;deletable=1;editable=1;locked=0;connectable=1;" vertex="1" parent="1">
          <mxGeometry x="1211" y="471" width="30" height="60" as="geometry" />
        </mxCell>
        <mxCell id="Z0IccabozwdIeJtyzvo7-83" value="" style="endArrow=none;html=1;rounded=0;exitX=1;exitY=0.5;exitDx=0;exitDy=0;strokeWidth=2;labelBackgroundColor=none;fontColor=default;entryX=0.5;entryY=0.5;entryDx=0;entryDy=0;entryPerimeter=0;fillColor=#d5e8d4;strokeColor=#82b366;movable=1;resizable=1;rotatable=1;deletable=1;editable=1;locked=0;connectable=1;" edge="1" parent="1" source="Z0IccabozwdIeJtyzvo7-77" target="Z0IccabozwdIeJtyzvo7-82">
          <mxGeometry width="50" height="50" relative="1" as="geometry">
            <mxPoint x="737" y="833.5" as="sourcePoint" />
            <mxPoint x="702" y="807.5" as="targetPoint" />
          </mxGeometry>
        </mxCell>
        <mxCell id="Z0IccabozwdIeJtyzvo7-84" value="Students" style="shape=umlActor;verticalLabelPosition=bottom;verticalAlign=top;html=1;outlineConnect=0;fontSize=14;strokeWidth=2;labelBackgroundColor=none;fillColor=#fff2cc;strokeColor=#d6b656;movable=1;resizable=1;rotatable=1;deletable=1;editable=1;locked=0;connectable=1;" vertex="1" parent="1">
          <mxGeometry x="157" y="574" width="30" height="60" as="geometry" />
        </mxCell>
        <mxCell id="Z0IccabozwdIeJtyzvo7-85" value="User" style="shape=umlActor;verticalLabelPosition=bottom;verticalAlign=top;html=1;outlineConnect=0;fontSize=14;strokeWidth=2;labelBackgroundColor=none;fillColor=#dae8fc;strokeColor=#6c8ebf;movable=1;resizable=1;rotatable=1;deletable=1;editable=1;locked=0;connectable=1;" vertex="1" parent="1">
          <mxGeometry x="154" y="294" width="30" height="60" as="geometry" />
        </mxCell>
        <mxCell id="Z0IccabozwdIeJtyzvo7-86" value="&lt;font style=&quot;font-size: 22px;&quot;&gt;&lt;b&gt;System Boundary&lt;/b&gt;&lt;/font&gt;" style="text;html=1;strokeColor=none;fillColor=none;align=center;verticalAlign=middle;whiteSpace=wrap;rounded=0;strokeWidth=2;labelBackgroundColor=none;movable=1;resizable=1;rotatable=1;deletable=1;editable=1;locked=0;connectable=1;" vertex="1" parent="1">
          <mxGeometry x="601" y="129" width="236" height="30" as="geometry" />
        </mxCell>
        <mxCell id="Z0IccabozwdIeJtyzvo7-87" value="&lt;font style=&quot;font-size: 18px;&quot;&gt;&lt;b&gt;Module login/logout&lt;/b&gt;&lt;/font&gt;" style="text;html=1;strokeColor=none;fillColor=none;align=center;verticalAlign=middle;whiteSpace=wrap;rounded=0;strokeWidth=2;labelBackgroundColor=none;movable=1;resizable=1;rotatable=1;deletable=1;editable=1;locked=0;connectable=1;" vertex="1" parent="1">
          <mxGeometry x="590" y="180" width="280" height="30" as="geometry" />
        </mxCell>
        <mxCell id="Z0IccabozwdIeJtyzvo7-88" value="" style="endArrow=none;html=1;rounded=0;entryX=0.5;entryY=0.5;entryDx=0;entryDy=0;entryPerimeter=0;strokeWidth=2;labelBackgroundColor=none;fontColor=default;fillColor=#fff2cc;strokeColor=#d6b656;movable=1;resizable=1;rotatable=1;deletable=1;editable=1;locked=0;connectable=1;" edge="1" parent="1" target="Z0IccabozwdIeJtyzvo7-84">
          <mxGeometry width="50" height="50" relative="1" as="geometry">
            <mxPoint x="256" y="604" as="sourcePoint" />
            <mxPoint x="375" y="619" as="targetPoint" />
          </mxGeometry>
        </mxCell>
        <mxCell id="Z0IccabozwdIeJtyzvo7-89" value="" style="endArrow=classic;html=1;rounded=1;jumpStyle=sharp;strokeWidth=2;labelBackgroundColor=none;fontColor=default;movable=1;resizable=1;rotatable=1;deletable=1;editable=1;locked=0;connectable=1;" edge="1" parent="1">
          <mxGeometry width="50" height="50" relative="1" as="geometry">
            <mxPoint x="1300" y="720" as="sourcePoint" />
            <mxPoint x="150" y="330" as="targetPoint" />
            <Array as="points">
              <mxPoint x="1300" y="1200" />
              <mxPoint x="690" y="1200" />
              <mxPoint x="90" y="1200" />
              <mxPoint x="90" y="760" />
              <mxPoint x="90" y="330" />
            </Array>
          </mxGeometry>
        </mxCell>
        <mxCell id="Z0IccabozwdIeJtyzvo7-90" value="SPSO" style="shape=umlActor;verticalLabelPosition=bottom;verticalAlign=top;html=1;outlineConnect=0;fontSize=14;strokeWidth=2;labelBackgroundColor=none;fillColor=#e1d5e7;strokeColor=#9673a6;movable=1;resizable=1;rotatable=1;deletable=1;editable=1;locked=0;connectable=1;" vertex="1" parent="1">
          <mxGeometry x="1221" y="691" width="30" height="60" as="geometry" />
        </mxCell>
        <mxCell id="Z0IccabozwdIeJtyzvo7-91" value="&lt;font style=&quot;font-size: 18px;&quot;&gt;&lt;b&gt;Module print&lt;/b&gt;&lt;/font&gt;" style="text;html=1;strokeColor=none;fillColor=none;align=center;verticalAlign=middle;whiteSpace=wrap;rounded=0;strokeWidth=2;labelBackgroundColor=none;movable=1;resizable=1;rotatable=1;deletable=1;editable=1;locked=0;connectable=1;" vertex="1" parent="1">
          <mxGeometry x="557" y="443" width="280" height="30" as="geometry" />
        </mxCell>
        <mxCell id="Z0IccabozwdIeJtyzvo7-92" value="" style="endArrow=none;html=1;rounded=0;exitX=0.5;exitY=0.5;exitDx=0;exitDy=0;exitPerimeter=0;strokeWidth=2;labelBackgroundColor=none;fontColor=default;fillColor=#dae8fc;strokeColor=#6c8ebf;movable=1;resizable=1;rotatable=1;deletable=1;editable=1;locked=0;connectable=1;" edge="1" parent="1" source="Z0IccabozwdIeJtyzvo7-85">
          <mxGeometry width="50" height="50" relative="1" as="geometry">
            <mxPoint x="248" y="361" as="sourcePoint" />
            <mxPoint x="230" y="324" as="targetPoint" />
          </mxGeometry>
        </mxCell>
        <mxCell id="Z0IccabozwdIeJtyzvo7-93" value="&lt;font style=&quot;font-size: 18px;&quot;&gt;&lt;b&gt;Module view printing log&lt;/b&gt;&lt;/font&gt;" style="text;html=1;strokeColor=none;fillColor=none;align=center;verticalAlign=middle;whiteSpace=wrap;rounded=0;strokeWidth=2;labelBackgroundColor=none;movable=1;resizable=1;rotatable=1;deletable=1;editable=1;locked=0;connectable=1;" vertex="1" parent="1">
          <mxGeometry x="562" y="661" width="280" height="30" as="geometry" />
        </mxCell>
        <mxCell id="Z0IccabozwdIeJtyzvo7-94" value="" style="endArrow=none;html=1;rounded=0;entryX=0.5;entryY=0.5;entryDx=0;entryDy=0;entryPerimeter=0;fillColor=#f8cecc;strokeColor=#b85450;strokeWidth=2;movable=1;resizable=1;rotatable=1;deletable=1;editable=1;locked=0;connectable=1;" edge="1" parent="1" target="Z0IccabozwdIeJtyzvo7-57">
          <mxGeometry width="50" height="50" relative="1" as="geometry">
            <mxPoint x="1160" y="290" as="sourcePoint" />
            <mxPoint x="1215" y="253" as="targetPoint" />
          </mxGeometry>
        </mxCell>
        <mxCell id="Z0IccabozwdIeJtyzvo7-95" value="" style="endArrow=none;html=1;rounded=0;exitX=0.5;exitY=0.5;exitDx=0;exitDy=0;exitPerimeter=0;strokeWidth=2;movable=1;resizable=1;rotatable=1;deletable=1;editable=1;locked=0;connectable=1;" edge="1" parent="1" source="Z0IccabozwdIeJtyzvo7-90">
          <mxGeometry width="50" height="50" relative="1" as="geometry">
            <mxPoint x="1233" y="739.96" as="sourcePoint" />
            <mxPoint x="1300" y="721" as="targetPoint" />
          </mxGeometry>
        </mxCell>
        <mxCell id="Z0IccabozwdIeJtyzvo7-97" value="&lt;font style=&quot;font-size: 18px;&quot;&gt;&lt;b&gt;Module management&lt;/b&gt;&lt;/font&gt;" style="text;html=1;strokeColor=none;fillColor=none;align=center;verticalAlign=middle;whiteSpace=wrap;rounded=0;strokeWidth=2;labelBackgroundColor=none;movable=1;resizable=1;rotatable=1;deletable=1;editable=1;locked=0;connectable=1;" vertex="1" parent="1">
          <mxGeometry x="579" y="919.5" width="280" height="30" as="geometry" />
        </mxCell>
        <mxCell id="Z0IccabozwdIeJtyzvo7-98" value="&lt;font style=&quot;font-size: 13px;&quot;&gt;&amp;lt;&amp;lt; include &amp;gt;&amp;gt;&lt;/font&gt;" style="html=1;verticalAlign=bottom;endArrow=open;dashed=1;endSize=8;curved=0;rounded=0;entryX=0;entryY=0.5;entryDx=0;entryDy=0;exitX=1;exitY=0.5;exitDx=0;exitDy=0;strokeWidth=2;labelBackgroundColor=none;fontColor=default;fillColor=#fff2cc;strokeColor=#d6b656;movable=1;resizable=1;rotatable=1;deletable=1;editable=1;locked=0;connectable=1;" edge="1" parent="1" source="Z0IccabozwdIeJtyzvo7-62" target="Z0IccabozwdIeJtyzvo7-77">
          <mxGeometry x="0.008" relative="1" as="geometry">
            <mxPoint x="520" y="259" as="sourcePoint" />
            <mxPoint x="712" y="269" as="targetPoint" />
            <mxPoint as="offset" />
          </mxGeometry>
        </mxCell>
        <mxCell id="yjxmDRZbXh30tHVFiKJ1-4" value="Authenticate" style="ellipse;whiteSpace=wrap;html=1;fontSize=14;strokeWidth=2;labelBackgroundColor=none;fillColor=#f8cecc;strokeColor=#b85450;movable=1;resizable=1;rotatable=1;deletable=1;editable=1;locked=0;connectable=1;" vertex="1" parent="1">
          <mxGeometry x="827" y="270" width="140" height="60" as="geometry" />
        </mxCell>
        <mxCell id="yjxmDRZbXh30tHVFiKJ1-6" value="" style="endArrow=none;html=1;rounded=0;strokeWidth=2;labelBackgroundColor=none;fontColor=default;fillColor=#f8cecc;strokeColor=#b85450;movable=1;resizable=1;rotatable=1;deletable=1;editable=1;locked=0;connectable=1;exitX=0.965;exitY=0.352;exitDx=0;exitDy=0;exitPerimeter=0;" edge="1" parent="1" source="yjxmDRZbXh30tHVFiKJ1-4">
          <mxGeometry width="50" height="50" relative="1" as="geometry">
            <mxPoint x="980" y="290" as="sourcePoint" />
            <mxPoint x="1160" y="290" as="targetPoint" />
            <Array as="points">
              <mxPoint x="1060" y="290" />
            </Array>
          </mxGeometry>
        </mxCell>
      </root>
    </mxGraphModel>
  </diagram>
</mxfile>
